<?xml version="1.0" standalone="no"?>
<!DOCTYPE svg PUBLIC "-//W3C//DTD SVG 20010904//EN"
 "http://www.w3.org/TR/2001/REC-SVG-20010904/DTD/svg10.dtd">
<svg version="1.0" xmlns="http://www.w3.org/2000/svg"
 width="512.000000pt" height="512.000000pt" viewBox="0 0 512.000000 512.000000"
 preserveAspectRatio="xMidYMid meet">

<g transform="translate(0.000000,512.000000) scale(0.100000,-0.100000)"
fill="#000000" stroke="none">
<path d="M1300 4953 c-187 -20 -408 -101 -565 -206 -83 -56 -108 -77 -203
-170 -172 -169 -293 -394 -348 -647 -17 -78 -19 -137 -19 -717 0 -622 0 -632
21 -659 39 -53 71 -69 134 -69 63 0 95 16 134 69 21 27 21 41 26 654 6 598 7
630 27 702 100 356 345 602 702 703 76 22 82 22 1154 25 l1077 3 0 -304 c0
-172 5 -329 11 -363 40 -224 237 -413 465 -446 104 -15 149 -6 195 41 101 100
30 271 -112 271 -62 0 -113 23 -165 75 -69 69 -75 97 -72 326 l3 186 398 -371
c218 -204 408 -387 421 -407 59 -87 57 -31 54 -1249 -3 -1110 -3 -1115 -25
-1191 -87 -309 -296 -547 -574 -658 -176 -70 -77 -66 -1474 -66 -1184 0 -1265
1 -1335 18 -358 87 -624 347 -722 706 -18 66 -22 115 -27 383 -6 289 -7 308
-27 334 -39 53 -71 69 -134 69 -63 0 -95 -16 -134 -69 -20 -26 -21 -40 -21
-339 0 -266 3 -324 19 -397 112 -514 491 -893 1006 -1006 81 -18 153 -19 1370
-19 1217 0 1289 1 1370 19 509 111 875 472 1003 986 21 84 21 104 24 1221 4
1251 6 1213 -57 1347 -16 35 -46 87 -66 114 -30 40 -714 688 -985 932 -87 79
-202 140 -304 161 -59 12 -235 14 -1140 13 -588 -1 -1086 -3 -1105 -5z"/>
<path d="M2495 3426 c-37 -17 -70 -52 -84 -89 -7 -18 -11 -138 -11 -322 l0
-294 -309 -3 c-295 -3 -311 -4 -337 -24 -53 -39 -69 -71 -69 -134 0 -63 16
-95 69 -134 26 -20 42 -21 336 -24 l309 -3 3 -309 c3 -294 4 -310 24 -336 39
-53 71 -69 134 -69 63 0 95 16 134 69 20 26 21 42 24 336 l3 309 309 3 c294 3
310 4 336 24 53 39 69 71 69 134 0 63 -16 95 -69 134 -26 20 -42 21 -336 24
l-309 3 -3 309 c-3 294 -4 310 -24 336 -11 15 -32 37 -46 47 -34 25 -113 32
-153 13z"/>
</g>
</svg>
